<?xml version="1.0" encoding="UTF-8"?>
<svg version="1.1" xmlns="http://www.w3.org/2000/svg" width="1000" height="1000">
<path d="M0 0 C4.36380228 0.00916987 8.72706847 0.00229883 13.09082031 -0.02050781 C83.8791452 -0.38844119 151.39115937 14.02702081 216.00170898 43.44604492 C216.95190918 43.87788086 217.90210938 44.3097168 218.88110352 44.75463867 C233.70996168 51.54563606 247.94732133 59.17723806 262.00170898 67.44604492 C263.21383057 68.15760742 263.21383057 68.15760742 264.45043945 68.88354492 C280.61064806 78.42582788 296.16529564 88.95134747 311.00170898 100.44604492 C311.54069824 100.86031738 312.0796875 101.27458984 312.63500977 101.70141602 C329.35255764 114.56216703 345.21147036 128.40031273 360.00170898 143.44604492 C362.83227521 146.28625532 365.67519541 149.11359953 368.52514648 151.93432617 C369.80904734 153.20901873 371.09290057 154.48375926 372.37670898 155.75854492 C373.01092773 156.38438477 373.64514648 157.01022461 374.29858398 157.6550293 C378.74693728 162.08068691 382.93573712 166.66761909 387.00170898 171.44604492 C387.80294189 172.38734253 387.80294189 172.38734253 388.62036133 173.34765625 C408.15835607 196.48977605 425.95940946 221.13440852 441.00170898 247.44604492 C441.3686084 248.07978027 441.73550781 248.71351563 442.11352539 249.36645508 C455.2976757 272.20378334 466.59837414 295.81638963 476.00170898 320.44604492 C476.42403809 321.53755859 476.84636719 322.62907227 477.28149414 323.75366211 C493.52306189 366.04538174 502.74780961 410.42326847 507.00170898 455.44604492 C507.08759277 456.31521545 507.17347656 457.18438599 507.26196289 458.07989502 C507.98423289 465.89267541 508.1769166 473.64950874 508.20483398 481.49291992 C508.21189362 482.81021591 508.21895325 484.1275119 508.22622681 485.48472595 C508.24579325 489.72183778 508.25091928 493.95889217 508.25170898 498.19604492 C508.25215084 499.27833059 508.25215084 499.27833059 508.25260162 500.38248062 C508.25399933 521.55219805 508.07122545 542.45308953 505.00170898 563.44604492 C504.80031408 564.89060739 504.59966644 566.33527418 504.3996582 567.7800293 C497.63567146 616.08703334 484.35915013 663.06075522 464.00170898 707.44604492 C463.54425293 708.44603516 463.08679688 709.44602539 462.61547852 710.47631836 C449.16369384 739.6703392 433.16604705 767.61160617 414.00170898 793.44604492 C413.23213867 794.49018555 412.46256836 795.53432617 411.66967773 796.61010742 C401.48957212 810.31076063 390.63565422 823.46812953 379.14233398 836.08666992 C377.78391397 837.58390658 376.43845478 839.093089 375.11108398 840.61791992 C369.79006426 846.69309992 364.13945485 852.41524991 358.43920898 858.13354492 C357.63563965 858.94170654 356.83207031 859.74986816 356.00415039 860.58251953 C351.16362738 865.41063603 346.19011487 869.99662447 341.00170898 874.44604492 C339.84507145 875.46757252 338.69007955 876.49096689 337.53686523 877.51635742 C329.00600148 885.04416439 320.18388868 892.06599734 311.07641602 898.8815918 C309.11810422 900.35827596 307.18039677 901.85780944 305.24780273 903.36791992 C287.05526359 917.48026886 267.18761806 929.42327882 247.00170898 940.44604492 C246.10838867 940.93524414 245.21506836 941.42444336 244.29467773 941.9284668 C178.10640485 977.92477645 100.23077199 1000.36363047 24.51342773 1000.64916992 C23.26404419 1000.65618423 22.01466064 1000.66319855 20.72741699 1000.67042542 C16.71464096 1000.68784209 12.7020147 1000.69485979 8.68920898 1000.69604492 C8.00544315 1000.69648678 7.32167732 1000.69692863 6.61719131 1000.69738388 C-14.07807485 1000.70439836 -34.47041358 1000.35427911 -54.99829102 997.44604492 C-56.27623535 997.27443848 -57.55417969 997.10283203 -58.87084961 996.92602539 C-112.81351654 989.637646 -163.99404991 974.12198223 -212.99829102 950.44604492 C-214.43374268 949.76010254 -214.43374268 949.76010254 -215.89819336 949.06030273 C-247.99708595 933.67808372 -278.53699518 914.11921738 -305.99829102 891.44604492 C-306.88645508 890.73061523 -307.77461914 890.01518555 -308.68969727 889.27807617 C-314.1605175 884.85728819 -319.46466374 880.30182026 -324.66235352 875.56323242 C-326.7674785 873.65524289 -328.90442735 871.79557423 -331.06079102 869.94604492 C-334.8859983 866.62415439 -338.41748732 863.04636098 -341.97094727 859.43823242 C-344.02264614 857.3487506 -344.02264614 857.3487506 -346.62329102 855.38354492 C-349.44503598 853.08159509 -351.62929526 850.47411261 -353.98657227 847.70776367 C-356.18470163 845.23646872 -358.50557219 842.94252964 -360.87329102 840.63354492 C-365.20457739 836.35475899 -369.05697898 831.84486384 -372.85375977 827.09057617 C-374.81268637 824.67492351 -376.84033522 822.36806761 -378.93579102 820.07104492 C-383.9640514 814.45879366 -388.50210243 808.4855619 -392.99829102 802.44604492 C-393.74320801 801.44589355 -393.74320801 801.44589355 -394.50317383 800.42553711 C-439.60538115 739.56710015 -470.50054464 670.15692402 -485.24829102 595.88354492 C-485.4704126 594.7760791 -485.69253418 593.66861328 -485.92138672 592.52758789 C-486.52688545 589.3288033 -487.07729609 586.12556972 -487.59378052 582.9112854 C-487.88214545 581.15388007 -488.18506857 579.39883758 -488.49777222 577.64559937 C-492.61581233 554.1862135 -492.65061506 530.81887631 -492.57470703 507.06347656 C-492.56099353 502.622413 -492.56783557 498.18221065 -492.59521484 493.74121094 C-493.07499662 415.66257323 -474.92045978 342.48011619 -439.99829102 272.44604492 C-439.50570801 271.45685059 -439.013125 270.46765625 -438.50561523 269.44848633 C-422.12617968 236.78148271 -401.51122136 206.39986598 -377.99829102 178.44604492 C-377.52504395 177.88256348 -377.05179687 177.31908203 -376.56420898 176.73852539 C-366.15101304 164.36893085 -366.15101304 164.36893085 -360.68164062 159.13037109 C-358.96773523 157.41547141 -357.39973276 155.63016552 -355.82641602 153.78588867 C-351.92097953 149.29491946 -347.7792124 145.07918455 -343.56079102 140.88354492 C-342.84858398 140.1674707 -342.13637695 139.45139648 -341.40258789 138.71362305 C-337.31856178 134.63701569 -333.13595723 130.73838294 -328.76464844 126.97167969 C-326.59000541 125.09340128 -324.48403754 123.14560716 -322.37329102 121.19604492 C-316.7627231 116.14055602 -310.86565814 111.51205387 -304.88452148 106.90844727 C-303.03538893 105.47480709 -301.20515599 104.01982639 -299.37719727 102.55932617 C-238.73748248 54.56915271 -165.20761873 21.9135694 -83.06079102 6.13354492 C-81.81982666 5.90296387 -80.5788623 5.67238281 -79.30029297 5.43481445 C-75.9620883 4.84588496 -72.62386901 4.30285598 -69.27249146 3.79660034 C-67.72671759 3.55832785 -66.18281728 3.30763956 -64.64083862 3.04592896 C-43.25376475 -0.52688697 -21.61284838 -0.04753119 0 0 Z " fill="#000000" transform="translate(491.998291015625,-0.44604492187500006)"/>
<path d="M0 0 C3.8874817 0.01610329 7.77392629 0.00005517 11.66137695 -0.01904297 C24.85835321 -0.02950212 37.4386746 0.57783807 50.40286255 3.05004883 C55.06739548 3.87669552 59.79672379 4.20621618 64.51489258 4.57861328 C65.4784668 4.66046875 66.44204102 4.74232422 67.43481445 4.82666016 C69.7319079 5.02094169 72.02929204 5.20921162 74.32739258 5.39111328 C74.32739258 6.05111328 74.32739258 6.71111328 74.32739258 7.39111328 C76.92191022 7.93558322 79.49854118 8.41525575 82.12426758 8.78564453 C88.05806784 9.62548134 93.02926936 10.87109938 98.41333008 13.50439453 C100.67423752 14.55179451 102.85983892 15.07271926 105.32739258 15.39111328 C105.32739258 16.05111328 105.32739258 16.71111328 105.32739258 17.39111328 C106.87426758 17.32923828 106.87426758 17.32923828 108.45239258 17.26611328 C112.30455981 17.39037674 114.76273364 18.00889859 118.32739258 19.39111328 C119.78542957 19.93357713 121.24377257 20.47521904 122.70239258 21.01611328 C123.89864258 21.46986328 125.09489258 21.92361328 126.32739258 22.39111328 C126.32739258 23.38111328 126.32739258 24.37111328 126.32739258 25.39111328 C127.31739258 25.47619141 128.30739258 25.56126953 129.32739258 25.64892578 C133.80391471 26.29068072 137.37410462 28.15314903 141.32739258 30.26611328 C142.68054038 30.97379403 144.03470048 31.67954272 145.38989258 32.38330078 C146.0421582 32.72458008 146.69442383 33.06585938 147.36645508 33.41748047 C149.30395453 34.37947596 151.26092315 35.21109124 153.26489258 36.02392578 C156.32739258 37.39111328 156.32739258 37.39111328 157.32739258 39.39111328 C159.02054249 40.12149167 160.71587761 40.84749372 162.42504883 41.53955078 C165.28905191 42.82158912 167.7574265 44.60331079 170.32739258 46.39111328 C173.19414963 48.20169668 176.08097011 49.75465001 179.13989258 51.20361328 C186.42949886 54.82101189 193.13805101 60.09903663 198.32739258 66.39111328 C198.32739258 67.05111328 198.32739258 67.71111328 198.32739258 68.39111328 C199.41310547 68.52501465 199.41310547 68.52501465 200.52075195 68.66162109 C210.48869757 71.25245456 219.83753018 83.59178237 226.95532227 90.75830078 C228.84532387 92.65914747 230.74595158 94.54890664 232.64770508 96.43798828 C233.86449365 97.65609658 235.08066269 98.87482413 236.29614258 100.09423828 C236.85861694 100.65266418 237.42109131 101.21109009 238.00061035 101.78643799 C240.97287016 104.79439959 243.27566514 107.65412584 245.32739258 111.39111328 C246.4179621 112.73235874 247.54322664 114.04618762 248.70239258 115.32861328 C249.3134082 116.01568359 249.92442383 116.70275391 250.55395508 117.41064453 C251.43180664 118.39097656 251.43180664 118.39097656 252.32739258 119.39111328 C256.28175172 123.8212643 258.96854738 128.24878376 261.32739258 133.70361328 C262.28593464 135.74114427 262.28593464 135.74114427 265.32739258 136.39111328 C268.07237322 140.32956377 272.32739258 146.45601767 272.32739258 151.39111328 C272.98739258 151.39111328 273.64739258 151.39111328 274.32739258 151.39111328 C278.53397243 156.6493381 284.32739258 165.63230099 284.32739258 172.39111328 C284.98739258 172.39111328 285.64739258 172.39111328 286.32739258 172.39111328 C287.00044276 173.99261214 287.66561485 175.59742358 288.32739258 177.20361328 C288.69864258 178.09693359 289.06989258 178.99025391 289.45239258 179.91064453 C290.32739258 182.39111328 290.32739258 182.39111328 290.32739258 185.39111328 C290.98739258 185.39111328 291.64739258 185.39111328 292.32739258 185.39111328 C292.64192383 186.36951172 292.95645508 187.34791016 293.28051758 188.35595703 C296.02781929 196.92163425 296.02781929 196.92163425 299.51489258 205.20361328 C301.34924904 209.093333 302.16660261 212.89263808 302.83520508 217.12939453 C303.3469256 219.48087219 304.24428826 221.25597731 305.32739258 223.39111328 C305.45239258 226.14111328 305.45239258 226.14111328 305.32739258 228.39111328 C305.98739258 228.39111328 306.64739258 228.39111328 307.32739258 228.39111328 C307.32739258 230.04111328 307.32739258 231.69111328 307.32739258 233.39111328 C307.98739258 233.39111328 308.64739258 233.39111328 309.32739258 233.39111328 C309.432854 234.09494141 309.53831543 234.79876953 309.64697266 235.52392578 C310.14163498 238.81344365 310.64075815 242.10227113 311.13989258 245.39111328 C311.38835937 247.05013672 311.38835937 247.05013672 311.6418457 248.74267578 C312.73208701 255.90136814 312.73208701 255.90136814 314.08740234 263.0135498 C316.14221866 272.81259322 316.73104551 282.05780878 316.62036133 292.04736328 C316.61474474 293.5714882 316.61048445 295.09561864 316.60749817 296.61975098 C316.59621127 300.57183609 316.56689013 304.52357408 316.53338623 308.4755249 C316.5023302 312.53197539 316.48891807 316.58848365 316.47387695 320.64501953 C316.44199927 328.56054089 316.39100718 336.47578354 316.32739258 344.39111328 C315.66739258 344.39111328 315.00739258 344.39111328 314.32739258 344.39111328 C314.34479492 345.78136719 314.34479492 345.78136719 314.36254883 347.19970703 C314.37608398 348.99601563 314.37608398 348.99601563 314.38989258 350.82861328 C314.40149414 352.02357422 314.4130957 353.21853516 314.42504883 354.44970703 C314.32739258 357.39111328 314.32739258 357.39111328 313.32739258 358.39111328 C312.87852178 361.45022432 312.50995927 364.50845366 312.1652832 367.58056641 C311.65870963 371.75259102 310.72130273 375.43718137 309.32739258 379.39111328 C308.92019649 381.17573811 308.54266546 382.96752806 308.20239258 384.76611328 C308.03481445 385.64009766 307.86723633 386.51408203 307.69458008 387.41455078 C307.5734082 388.06681641 307.45223633 388.71908203 307.32739258 389.39111328 C300.53550832 388.19873429 295.41605699 385.25425421 289.88989258 381.20361328 C285.26382101 377.8713961 280.42381748 375.16853311 275.38989258 372.51611328 C274.64360596 372.12270752 273.89731934 371.72930176 273.12841797 371.32397461 C270.19972798 369.80201768 267.46694853 368.43763193 264.32739258 367.39111328 C264.32739258 366.40111328 264.32739258 365.41111328 264.32739258 364.39111328 C263.49594727 364.19775391 263.49594727 364.19775391 262.64770508 364.00048828 C256.19954822 362.30703294 250.04222278 359.84955626 244.13989258 356.76611328 C239.90819177 354.56562886 235.99417083 353.3417533 231.32739258 352.39111328 C231.32739258 351.73111328 231.32739258 351.07111328 231.32739258 350.39111328 C230.61325195 350.27509766 229.89911133 350.15908203 229.16333008 350.03955078 C226.17590743 349.35647618 223.71982018 348.32449596 220.95239258 347.01611328 C219.99333008 346.57009766 219.03426758 346.12408203 218.04614258 345.66455078 C216.70036133 345.03419922 216.70036133 345.03419922 215.32739258 344.39111328 C211.38177661 342.58025222 207.65277372 341.04647406 203.32739258 340.39111328 C203.32739258 339.73111328 203.32739258 339.07111328 203.32739258 338.39111328 C202.75891602 338.35373047 202.19043945 338.31634766 201.60473633 338.27783203 C200.44651367 338.17921875 200.44651367 338.17921875 199.26489258 338.07861328 C198.51079102 338.02060547 197.75668945 337.96259766 196.97973633 337.90283203 C194.18971599 337.36455123 191.83473187 336.35802384 189.25244141 335.19555664 C185.83232928 333.76635316 182.26728697 332.82690968 178.70239258 331.82861328 C174.13332038 330.5385693 169.73440537 329.16675436 165.32739258 327.39111328 C158.49761644 325.30699401 151.55261622 323.61289799 144.63989258 321.82861328 C143.4172168 321.51214844 142.19454102 321.19568359 140.93481445 320.86962891 C134.13675282 319.10816324 134.13675282 319.10816324 127.32739258 317.39111328 C127.32739258 316.73111328 127.32739258 316.07111328 127.32739258 315.39111328 C126.39540039 315.34212891 125.4634082 315.29314453 124.50317383 315.24267578 C116.00960919 314.74456987 107.72131961 313.84908037 99.32739258 312.39111328 C99.32739258 311.73111328 99.32739258 311.07111328 99.32739258 310.39111328 C98.73837158 310.36605713 98.14935059 310.34100098 97.54248047 310.31518555 C94.82480587 310.19778967 92.10735916 310.07572613 89.38989258 309.95361328 C88.46370117 309.91429687 87.53750977 309.87498047 86.58325195 309.83447266 C70.01500747 309.07872817 70.01500747 309.07872817 68.32739258 307.39111328 C37.81453503 303.39761045 6.46329095 303.83636504 -24.23510742 304.82861328 C-25.46696777 304.86776855 -26.69882812 304.90692383 -27.96801758 304.94726562 C-33.61949248 305.15181908 -39.07424707 305.57581808 -44.67260742 306.39111328 C-47.65340975 306.50410832 -50.62776238 306.48683563 -53.61010742 306.45361328 C-54.3893457 306.44910156 -55.16858398 306.44458984 -55.97143555 306.43994141 C-57.87186011 306.42828236 -59.77224448 306.41035205 -61.67260742 306.39111328 C-61.67260742 307.05111328 -61.67260742 307.71111328 -61.67260742 308.39111328 C-62.88819336 308.45169922 -64.1037793 308.51228516 -65.35620117 308.57470703 C-66.9408497 308.6590966 -68.52548444 308.74374538 -70.11010742 308.82861328 C-70.91254883 308.86792969 -71.71499023 308.90724609 -72.54174805 308.94775391 C-76.42500303 308.79654288 -76.42500303 308.79654288 -79.67260742 310.39111328 C-81.14657481 310.59879558 -82.62752003 310.75827345 -84.11010742 310.89111328 C-87.51758247 311.18258272 -87.51758247 311.18258272 -90.67260742 312.39111328 C-93.00338086 312.69903197 -95.33502638 312.90006602 -97.67651367 313.10986328 C-99.66843873 313.1864334 -99.66843873 313.1864334 -100.67260742 314.39111328 C-102.25250022 314.55392666 -103.83726484 314.66989307 -105.42260742 314.76611328 C-110.92991788 315.21554406 -116.09968481 316.31839333 -121.45776367 317.63720703 C-125.32584723 318.54430317 -129.208873 319.18320215 -133.13745117 319.76611328 C-135.80044801 320.3148371 -135.80044801 320.3148371 -138.47729492 321.86767578 C-142.21686153 323.65059874 -145.80508393 324.20926467 -149.86010742 324.76611328 C-156.20668519 325.74580921 -161.36255424 327.32720314 -167.11791992 330.26611328 C-170.71794271 331.85144442 -174.31346226 332.2870844 -178.18041992 332.86767578 C-180.60752869 333.37744471 -182.199467 334.04265625 -184.29760742 335.32861328 C-189.05599488 338.23651673 -193.98425936 339.71902626 -199.37573242 341.06689453 C-204.99454229 342.471597 -209.63498715 344.23146057 -214.61401367 347.19580078 C-217.53166067 348.88991839 -220.55731121 350.09797146 -223.67260742 351.39111328 C-224.68323242 351.90673828 -225.69385742 352.42236328 -226.73510742 352.95361328 C-229.67306565 354.39133752 -232.56660811 355.37690942 -235.67260742 356.39111328 C-240.48016805 358.38124668 -245.14345448 360.55892236 -249.79760742 362.89111328 C-250.97581055 363.47892578 -252.15401367 364.06673828 -253.36791992 364.67236328 C-256.62076798 366.30076193 -256.62076798 366.30076193 -259.35229492 368.10986328 C-261.67260742 369.39111328 -261.67260742 369.39111328 -265.67260742 369.39111328 C-265.67260742 370.05111328 -265.67260742 370.71111328 -265.67260742 371.39111328 C-266.78635742 371.47361328 -267.90010742 371.55611328 -269.04760742 371.64111328 C-270.24385742 371.88861328 -271.44010742 372.13611328 -272.67260742 372.39111328 C-273.72281845 374.24083025 -273.72281845 374.24083025 -274.67260742 376.39111328 C-280.50478867 380.16487762 -286.74174707 383.34098293 -293.67260742 384.39111328 C-296.1132533 378.7471197 -295.86549841 373.4135985 -295.67260742 367.39111328 C-296.33260742 367.39111328 -296.99260742 367.39111328 -297.67260742 367.39111328 C-298.32462225 363.76719763 -298.96805757 360.14180658 -299.61010742 356.51611328 C-299.79250977 355.50291016 -299.97491211 354.48970703 -300.1628418 353.44580078 C-300.34008789 352.44033203 -300.51733398 351.43486328 -300.69995117 350.39892578 C-300.94346313 349.0321167 -300.94346313 349.0321167 -301.19189453 347.63769531 C-302.33302888 339.93083671 -302.83032103 332.3144543 -302.84057617 324.52783203 C-302.84390457 323.61516068 -302.84723297 322.70248932 -302.85066223 321.76216125 C-302.85569208 319.83859759 -302.85807179 317.91502531 -302.85791016 315.99145508 C-302.86007329 313.12386694 -302.87820698 310.25667932 -302.8972168 307.38916016 C-302.93577494 294.62367062 -302.20440358 282.06570035 -300.67260742 269.39111328 C-300.58892914 268.69456635 -300.50525085 267.99801941 -300.41903687 267.28036499 C-299.8006228 262.51912866 -299.8006228 262.51912866 -298.67260742 261.39111328 C-298.44067878 259.8764188 -298.26045504 258.35356766 -298.11010742 256.82861328 C-297.98442383 255.58917969 -297.98442383 255.58917969 -297.85620117 254.32470703 C-297.76532227 253.36757813 -297.76532227 253.36757813 -297.67260742 252.39111328 C-297.01260742 252.39111328 -296.35260742 252.39111328 -295.67260742 252.39111328 C-295.69581055 251.77365234 -295.71901367 251.15619141 -295.74291992 250.52001953 C-295.87226238 244.45016286 -295.20273714 239.24111197 -293.67260742 233.39111328 C-293.34150638 232.0529847 -293.01224211 230.71440095 -292.68432617 229.37548828 C-289.91484522 218.11782667 -289.91484522 218.11782667 -288.67260742 214.39111328 C-288.01260742 214.39111328 -287.35260742 214.39111328 -286.67260742 214.39111328 C-286.62362305 213.83423828 -286.57463867 213.27736328 -286.52416992 212.70361328 C-286.00705166 207.42544063 -285.06798279 202.50748963 -283.67260742 197.39111328 C-283.01260742 197.39111328 -282.35260742 197.39111328 -281.67260742 197.39111328 C-281.56819336 196.68857422 -281.4637793 195.98603516 -281.35620117 195.26220703 C-280.57802026 191.99384721 -279.29879188 189.42423144 -277.73510742 186.45361328 C-275.65295042 182.48881801 -274.0265361 178.6593279 -272.67260742 174.39111328 C-272.34260742 173.73111328 -272.01260742 173.07111328 -271.67260742 172.39111328 C-271.01260742 172.39111328 -270.35260742 172.39111328 -269.67260742 172.39111328 C-269.01260742 169.75111328 -268.35260742 167.11111328 -267.67260742 164.39111328 C-267.01260742 164.39111328 -266.35260742 164.39111328 -265.67260742 164.39111328 C-265.48698242 162.99892578 -265.48698242 162.99892578 -265.29760742 161.57861328 C-264.67260742 158.39111328 -264.67260742 158.39111328 -262.67260742 155.39111328 C-262.01260742 155.39111328 -261.35260742 155.39111328 -260.67260742 155.39111328 C-260.17760742 152.42111328 -260.17760742 152.42111328 -259.67260742 149.39111328 C-258.68260742 149.39111328 -257.69260742 149.39111328 -256.67260742 149.39111328 C-256.61073242 148.50423828 -256.54885742 147.61736328 -256.48510742 146.70361328 C-255.47626228 142.59062922 -253.6674157 141.3146166 -250.67260742 138.39111328 C-249.93858334 136.69966647 -249.20711154 135.00601378 -248.54370117 133.28564453 C-245.84885298 127.42465183 -241.1693649 122.88787076 -236.67260742 118.39111328 C-236.17760742 116.90611328 -236.17760742 116.90611328 -235.67260742 115.39111328 C-234.68260742 115.06111328 -233.69260742 114.73111328 -232.67260742 114.39111328 C-232.2575293 113.53646484 -231.84245117 112.68181641 -231.41479492 111.80126953 C-229.17699007 107.42099232 -226.19498833 104.34465192 -222.79760742 100.82861328 C-222.13865479 100.13767578 -221.47970215 99.44673828 -220.80078125 98.73486328 C-218.76735506 96.61107883 -216.72192431 94.49955929 -214.67260742 92.39111328 C-214.03210449 91.72869629 -213.39160156 91.0662793 -212.73168945 90.38378906 C-210.94891972 88.5450893 -209.15729311 86.7157154 -207.36010742 84.89111328 C-206.54340576 84.05471313 -206.54340576 84.05471313 -205.71020508 83.20141602 C-204.40303337 81.89152539 -203.04247698 80.63528719 -201.67260742 79.39111328 C-201.01260742 79.39111328 -200.35260742 79.39111328 -199.67260742 79.39111328 C-199.67260742 78.73111328 -199.67260742 78.07111328 -199.67260742 77.39111328 C-198.84760742 77.04048828 -198.02260742 76.68986328 -197.17260742 76.32861328 C-193.65134592 74.56798253 -191.05796497 72.13803373 -188.16870117 69.49658203 C-184.42326551 66.33728654 -180.39068445 63.59762163 -176.33276367 60.85571289 C-172.60375252 58.35450855 -172.60375252 58.35450855 -170.67260742 54.39111328 C-168.66870117 53.43408203 -168.66870117 53.43408203 -166.11010742 52.57861328 C-161.54125317 50.88813721 -158.1885471 48.73841109 -154.41479492 45.69970703 C-152.67260742 44.39111328 -152.67260742 44.39111328 -149.98510742 43.32861328 C-146.80707804 42.04022299 -145.05101756 39.82898367 -142.67260742 37.39111328 C-138.77808691 34.52146659 -135.46187973 33.86064978 -130.67260742 33.39111328 C-130.67260742 32.73111328 -130.67260742 32.07111328 -130.67260742 31.39111328 C-129.21554016 30.88743571 -127.75690646 30.38828772 -126.29760742 29.89111328 C-125.48549805 29.61267578 -124.67338867 29.33423828 -123.83666992 29.04736328 C-121.67260742 28.39111328 -121.67260742 28.39111328 -119.67260742 28.39111328 C-119.67260742 27.73111328 -119.67260742 27.07111328 -119.67260742 26.39111328 C-114.95988419 23.42004863 -110.58238135 21.60075514 -105.21948242 20.11376953 C-102.78602624 19.423295 -100.42918855 18.61609137 -98.04760742 17.76611328 C-93.92131588 16.3612618 -90.00823733 15.78526145 -85.67260742 15.39111328 C-85.67260742 14.73111328 -85.67260742 14.07111328 -85.67260742 13.39111328 C-79.05900278 11.29680515 -72.38312739 9.45843293 -65.67260742 7.70361328 C-64.84277344 7.47714111 -64.01293945 7.25066895 -63.15795898 7.01733398 C-57.23762204 5.49770329 -51.77366838 5.12094662 -45.67260742 5.39111328 C-45.67260742 4.73111328 -45.67260742 4.07111328 -45.67260742 3.39111328 C-30.4242237 0.45147757 -15.50615594 -0.07630308 0 0 Z " fill="#CB0000" transform="translate(493.672607421875,64.60888671875)"/>
<path d="M0 0 C1.31416901 -0.00361542 2.62833801 -0.00723083 3.98233032 -0.01095581 C25.44884335 -0.04766486 46.57916061 1.07388673 67.86743164 3.86035156 C70.78741624 4.23675662 73.70366522 4.56258391 76.6328125 4.85546875 C79.66028502 5.22521226 82.19964737 5.70322904 85.0625 6.6875 C90.48334522 8.43174673 95.98694179 9.54696843 101.56640625 10.6640625 C104.375 11.3125 104.375 11.3125 105.375 12.3125 C107.05955421 12.47236982 108.74819344 12.58990595 110.4375 12.6875 C114.84420922 13.04572281 118.35658803 13.84519905 122.40625 15.5546875 C125.29960769 16.66840058 128.26672904 17.22410581 131.296875 17.84765625 C133.375 18.3125 133.375 18.3125 136.25 19.3125 C138.99303232 20.19027034 141.41643908 20.64083915 144.25 21.0625 C151.9880456 22.38051876 159.11786361 25.41594231 166.375 28.3125 C167.35726563 28.704375 168.33953125 29.09625 169.3515625 29.5 C170.35316406 29.9021875 170.35316406 29.9021875 171.375 30.3125 C171.375 30.9725 171.375 31.6325 171.375 32.3125 C172.5815625 32.498125 172.5815625 32.498125 173.8125 32.6875 C178.03358729 33.42804163 182.19835017 34.35651126 186.375 35.3125 C186.375 35.9725 186.375 36.6325 186.375 37.3125 C187.06207031 37.42207031 187.74914062 37.53164063 188.45703125 37.64453125 C189.80861328 37.88236328 189.80861328 37.88236328 191.1875 38.125 C192.08082031 38.27582031 192.97414063 38.42664063 193.89453125 38.58203125 C196.63252444 39.38833791 197.44684479 40.30051196 199.375 42.3125 C201.40841887 43.09063652 201.40841887 43.09063652 203.5625 43.5 C204.820625 43.768125 206.07875 44.03625 207.375 44.3125 C207.375 44.9725 207.375 45.6325 207.375 46.3125 C208.695 46.6425 210.015 46.9725 211.375 47.3125 C211.375 47.9725 211.375 48.6325 211.375 49.3125 C215.335 49.8075 215.335 49.8075 219.375 50.3125 C219.375 50.9725 219.375 51.6325 219.375 52.3125 C219.973125 52.456875 220.57125 52.60125 221.1875 52.75 C222.93650404 53.1997439 224.66177023 53.74142341 226.375 54.3125 C226.375 54.9725 226.375 55.6325 226.375 56.3125 C227.096875 56.415625 227.81875 56.51875 228.5625 56.625 C231.65246686 57.38032523 233.77058686 58.50387976 236.375 60.3125 C236.705 60.9725 237.035 61.6325 237.375 62.3125 C239.14574147 63.45606764 239.14574147 63.45606764 241.3125 64.5625 C244.78941695 66.43383428 248.19013201 68.38342132 251.5625 70.4375 C254.24657971 72.06622948 256.86467387 73.55271737 259.6875 74.9375 C262.59643081 76.42579018 264.85396732 78.24396036 267.375 80.3125 C270.59937267 82.40834224 273.77103862 83.97388577 277.375 85.3125 C276.31900593 88.69168104 274.79818583 91.17705976 272.640625 93.9296875 C269.35067753 98.25237607 266.53217077 102.776971 263.75 107.4375 C261.96832024 110.40201716 260.1804256 113.36237565 258.375 116.3125 C257.80313965 117.24787598 257.80313965 117.24787598 257.21972656 118.20214844 C256.32750964 119.6093916 255.35886819 120.96773692 254.375 122.3125 C253.715 122.3125 253.055 122.3125 252.375 122.3125 C252.00181641 123.14974609 252.00181641 123.14974609 251.62109375 124.00390625 C250.1627572 126.70571471 248.39422609 128.88516717 246.4375 131.25 C244.40558994 133.70728188 242.54971828 136.00008003 240.9921875 138.78515625 C238.93303788 142.00319926 236.29414875 144.32815505 233.4375 146.8125 C229.70866085 150.07923761 226.43903089 153.40410151 223.375 157.3125 C222.07631056 158.5782149 220.74373284 159.81037868 219.375 161 C218.715 161.58136719 218.055 162.16273438 217.375 162.76171875 C215.44683136 164.25680264 213.59153545 165.30813238 211.375 166.3125 C211.375 166.9725 211.375 167.6325 211.375 168.3125 C210.715 168.3125 210.055 168.3125 209.375 168.3125 C209.375 168.9725 209.375 169.6325 209.375 170.3125 C207.73046875 171.71484375 207.73046875 171.71484375 205.5625 173.25 C203.45632929 174.75002322 201.53796959 176.14408512 199.73828125 178.00390625 C198.375 179.3125 198.375 179.3125 196.375 179.3125 C196.375 179.9725 196.375 180.6325 196.375 181.3125 C190.96323529 185.3125 190.96323529 185.3125 188.375 185.3125 C188.106875 185.910625 187.83875 186.50875 187.5625 187.125 C184.66890831 192.45530048 179.76117352 194.20609917 174.46875 196.61914062 C170.72852148 198.39812643 168.73974758 199.97603143 166.375 203.3125 C164.203125 204.515625 164.203125 204.515625 161.625 205.5625 C156.82535435 207.62404993 152.22182188 209.90366427 147.625 212.375 C147.01172852 212.70338867 146.39845703 213.03177734 145.76660156 213.37011719 C143.34992337 214.67280694 140.94145086 215.9749135 138.58276367 217.38061523 C134.85060832 219.60388488 131.3693622 221.09985539 127.1875 222.25 C121.52693321 223.89254597 116.21767007 225.96428758 110.8359375 228.359375 C108.375 229.3125 108.375 229.3125 105.375 229.3125 C105.375 229.9725 105.375 230.6325 105.375 231.3125 C101.19762526 232.90388085 97.84339215 233.52528058 93.375 233.3125 C93.375 233.9725 93.375 234.6325 93.375 235.3125 C92.78332031 235.43367187 92.19164062 235.55484375 91.58203125 235.6796875 C90.79183594 235.84726562 90.00164062 236.01484375 89.1875 236.1875 C88.02154297 236.43113281 88.02154297 236.43113281 86.83203125 236.6796875 C84.35999015 237.25483183 84.35999015 237.25483183 82.05419922 238.27587891 C77.41699536 240.07008044 72.55256317 240.84476592 67.6875 241.8125 C66.66849609 242.02519531 65.64949219 242.23789062 64.59960938 242.45703125 C58.06689832 243.76759359 51.55429456 244.68332471 44.93432617 245.38867188 C44.10762169 245.47856384 43.28091721 245.56845581 42.42916107 245.66107178 C40.41132169 245.88019706 38.39319003 246.09662813 36.375 246.3125 C36.37868717 247.50133632 36.38237434 248.69017263 36.38617325 249.91503429 C36.47292294 278.17569594 36.53882114 306.43635412 36.57926132 334.69711969 C36.58426377 338.18032287 36.58944109 341.66352576 36.59472656 345.14672852 C36.5957758 345.84013172 36.59682505 346.53353493 36.59790608 347.24795035 C36.61528136 358.45540197 36.64680305 369.66277099 36.68361118 380.87017372 C36.72110095 392.38167217 36.74295364 403.8931127 36.75135398 415.40467101 C36.75655936 421.86564942 36.76875629 428.32644087 36.79792023 434.78735924 C36.82517596 440.87516337 36.83342439 446.96270445 36.82743073 453.05056381 C36.82852642 455.27850972 36.8364193 457.5064649 36.8518219 459.73435783 C37.02931541 486.74454952 37.02931541 486.74454952 29.4375 496.4375 C24.57039792 501.35303095 18.94965016 503.49123149 12.375 505.3125 C11.715 505.3125 11.055 505.3125 10.375 505.3125 C10.375 505.9725 10.375 506.6325 10.375 507.3125 C-0.86554633 508.32617652 -11.24375587 505.10406498 -20.03515625 497.9296875 C-22.86250895 495.05370712 -25.625 491.48547409 -25.625 487.3125 C-26.285 487.3125 -26.945 487.3125 -27.625 487.3125 C-28.88340575 482.45737373 -28.76122798 477.6908425 -28.74525452 472.71379089 C-28.74653615 471.25567984 -28.74653615 471.25567984 -28.74784368 469.768112 C-28.7494918 466.50839386 -28.743988 463.24872708 -28.73852539 459.98901367 C-28.73824335 457.6533305 -28.73840158 455.31764723 -28.7389679 452.98196411 C-28.73925521 446.63741347 -28.73336913 440.29288167 -28.72639394 433.94833541 C-28.72078194 427.99073515 -28.71977107 422.03313562 -28.71874207 416.07553307 C-28.71655414 404.27634466 -28.70990106 392.47716317 -28.70043945 380.67797852 C-28.69125864 369.21704137 -28.68418108 357.7561061 -28.67993164 346.29516602 C-28.67966892 345.58856168 -28.67940619 344.88195735 -28.67913551 344.15394076 C-28.67783046 340.60906906 -28.67656675 337.06419734 -28.67532361 333.51932561 C-28.66495906 304.11704595 -28.64727337 274.71477305 -28.625 245.3125 C-29.93809898 245.32650345 -29.93809898 245.32650345 -31.27772522 245.34078979 C-32.43525803 245.34805084 -33.59279083 245.35531189 -34.78540039 245.36279297 C-35.92892471 245.3721286 -37.07244904 245.38146423 -38.25062561 245.39108276 C-42.9962601 245.28056596 -47.44190696 244.46429845 -52.0625 243.4375 C-52.90748047 243.26347656 -53.75246094 243.08945312 -54.62304688 242.91015625 C-59.07627151 241.97006974 -63.31451039 240.78681239 -67.625 239.3125 C-69.18173264 238.99147167 -70.74456569 238.69837871 -72.3125 238.4375 C-76.97968057 237.54585953 -81.23139785 236.08767646 -85.6640625 234.3984375 C-90.91045558 232.47429861 -96.27247417 230.91230104 -101.625 229.3125 C-101.625 228.6525 -101.625 227.9925 -101.625 227.3125 C-102.74648438 227.23902344 -102.74648438 227.23902344 -103.890625 227.1640625 C-104.87546875 227.08929687 -105.8603125 227.01453125 -106.875 226.9375 C-107.84953125 226.86789062 -108.8240625 226.79828125 -109.828125 226.7265625 C-112.52133189 226.32784751 -114.29463279 225.67742937 -116.625 224.3125 C-116.625 223.6525 -116.625 222.9925 -116.625 222.3125 C-117.841875 222.126875 -119.05875 221.94125 -120.3125 221.75 C-126.93779112 220.2835741 -133.03558289 217.1136244 -138.625 213.3125 C-139.32172612 211.99462484 -139.99571108 210.66387621 -140.625 209.3125 C-144.18706661 208.49379815 -144.18706661 208.49379815 -147.625 208.3125 C-147.625 207.6525 -147.625 206.9925 -147.625 206.3125 C-148.22828125 206.11914062 -148.8315625 205.92578125 -149.453125 205.7265625 C-150.25234375 205.46617187 -151.0515625 205.20578125 -151.875 204.9375 C-152.66390625 204.68226563 -153.4528125 204.42703125 -154.265625 204.1640625 C-158.71803786 202.55706581 -161.33064493 200.70980367 -164.625 197.3125 C-168.15327305 194.35330325 -171.73631048 192.87910685 -176.125 191.5625 C-178.88213174 190.18393413 -180.05764053 188.57226027 -181.90234375 186.1640625 C-185.11127863 182.71500324 -189.07620585 180.11144241 -192.8828125 177.36328125 C-195.625 175.3125 -195.625 175.3125 -197.3046875 173.60546875 C-198.70936714 172.04113823 -198.70936714 172.04113823 -201.625 171.3125 C-203.16796875 169.74609375 -203.16796875 169.74609375 -204.8125 167.75 C-207.30826212 164.80237358 -209.86719097 162.01675934 -212.625 159.3125 C-215.86042261 156.12675759 -218.84004093 152.80166217 -221.79296875 149.35546875 C-223.73227489 147.19287363 -225.78074129 145.19992266 -227.875 143.1875 C-236.40119212 134.76315659 -244.41987794 124.56259924 -250.625 114.3125 C-250.625 113.6525 -250.625 112.9925 -250.625 112.3125 C-252.11 111.8175 -252.11 111.8175 -253.625 111.3125 C-254.34887084 109.66987003 -255.00919855 107.99862301 -255.625 106.3125 C-256.5022714 104.91203662 -257.42079735 103.53672203 -258.375 102.1875 C-260.72914464 98.71150372 -262.96078376 95.19763625 -265.0625 91.5625 C-265.57683594 90.68078125 -266.09117187 89.7990625 -266.62109375 88.890625 C-267.79178588 85.88417828 -267.55008315 84.35596883 -266.625 81.3125 C-265.965 81.3125 -265.305 81.3125 -264.625 81.3125 C-264.625 80.6525 -264.625 79.9925 -264.625 79.3125 C-258.0436691 74.13145227 -250.7771765 70.18227096 -243.21875 66.63671875 C-240.77768688 65.39045309 -238.79634229 63.96837658 -236.625 62.3125 C-234.93176291 61.59613046 -233.2376757 60.88152067 -231.53515625 60.1875 C-228.78961078 58.92982682 -226.34447334 57.28141245 -223.8125 55.64453125 C-220.59064282 53.68265036 -217.22011117 52.06242014 -213.82421875 50.42578125 C-211.43068247 49.26897927 -211.43068247 49.26897927 -208.625 47.3125 C-205.4375 47.1875 -205.4375 47.1875 -202.625 47.3125 C-202.625 46.6525 -202.625 45.9925 -202.625 45.3125 C-195.64272381 41.14088584 -188.58779942 37.99508753 -180.93359375 35.31787109 C-176.92456157 33.91650695 -176.92456157 33.91650695 -173.625 31.3125 C-171.0260317 30.4125243 -168.44832448 29.58705216 -165.8125 28.8125 C-160.30031609 27.18258644 -160.30031609 27.18258644 -154.90234375 25.21875 C-151.89701522 24.02280451 -148.87799964 23.48030881 -145.7109375 22.875 C-143.34440056 22.35577522 -143.34440056 22.35577522 -140.625 20.3125 C-138.76312174 19.8948059 -136.88506715 19.54594062 -135 19.25 C-131.50362912 18.94741174 -131.50362912 18.94741174 -128.625 17.3125 C-126.8377702 17.0174585 -125.0495885 16.72728359 -123.25756836 16.46289062 C-116.56634541 15.46141419 -110.76330923 14.14896552 -104.5625 11.3125 C-96.07279048 7.63241132 -87.46810054 6.87303567 -78.32421875 5.953125 C-73.77684218 5.48949047 -69.37495343 4.72641567 -64.90551758 3.78076172 C-43.73169428 -0.56688769 -21.49405754 0.04553933 0 0 Z " fill="#FDFDFD" transform="translate(496.625,437.6875)"/>
<path d="M0 0 C11.31020425 -0.26133976 22.4402808 -0.34330442 33.25 3.46875 C38.12240981 5.14062023 42.97402999 5.96508727 48.0625 6.6875 C49.3609082 6.88182617 49.3609082 6.88182617 50.68554688 7.08007812 C52.78930608 7.39389856 54.89451257 7.69799214 57 8 C57.495 9.485 57.495 9.485 58 11 C53.6035054 11.32973709 50.59980963 10.52545776 46.55859375 8.86328125 C41.89649481 7.29026771 37.02484255 6.54137248 32.1953125 5.6484375 C29 5 29 5 27 4 C24.97152934 3.70841421 22.93602372 3.46508666 20.8984375 3.24609375 C19.68671875 3.11396484 18.475 2.98183594 17.2265625 2.84570312 C15.95554687 2.71099609 14.68453125 2.57628906 13.375 2.4375 C12.09625 2.29892578 10.8175 2.16035156 9.5 2.01757812 C6.33368685 1.67495469 3.16703058 1.33591633 0 1 C0 0.67 0 0.34 0 0 Z " fill="#343434" transform="translate(550,440)"/>
<path d="M0 0 C19.8 0 39.6 0 60 0 C60 0.66 60 1.32 60 2 C62.31 2 64.62 2 67 2 C67 2.33 67 2.66 67 3 C65.62511713 3.02749766 64.25006609 3.0466164 62.875 3.0625 C61.72644531 3.07990234 61.72644531 3.07990234 60.5546875 3.09765625 C58 3 58 3 55.58789062 2.51367188 C50.41128914 1.77254711 45.26266533 1.76249288 40.0390625 1.68359375 C38.89335785 1.66281265 37.7476532 1.64203156 36.56723022 1.62062073 C32.91987914 1.55541782 29.27245816 1.49637648 25.625 1.4375 C23.14712829 1.39428695 20.66926356 1.35067178 18.19140625 1.30664062 C12.1276773 1.19976648 6.06387937 1.09794651 0 1 C0 0.67 0 0.34 0 0 Z " fill="#550000" transform="translate(475,64)"/>
<path d="M0 0 C-5.54464561 2.24664534 -10.72240719 3.66543329 -16.625 4.5625 C-21.61495431 5.3394057 -26.2274506 6.27523251 -31 8 C-33.33010909 8.67784992 -35.66359824 9.34416793 -38 10 C-39.31269332 10.37432271 -40.62519987 10.74930117 -41.9375 11.125 C-42.948125 11.41375 -43.95875 11.7025 -45 12 C-44.67 11.01 -44.34 10.02 -44 9 C-41.48828125 8.12109375 -41.48828125 8.12109375 -38.3125 7.4375 C-35.16157684 6.74296277 -32.12091869 6.04084222 -29.0625 5.0078125 C-24.4440522 3.48796616 -19.70990947 2.64369125 -14.94921875 1.68359375 C-12.12716846 1.30356132 -12.12716846 1.30356132 -11 0 C-6.97279717 -0.75984959 -3.92759816 -1.16180608 0 0 Z " fill="#464646" transform="translate(393,450)"/>
<path d="M0 0 C0.66 0.33 1.32 0.66 2 1 C-0.625 6.75 -0.625 6.75 -4 9 C-4.67258667 11.33163378 -5.33847444 13.6652039 -6 16 C-7.875 19.4375 -7.875 19.4375 -10 22 C-11.32 22 -12.64 22 -14 22 C-13.45861636 17.95386965 -12.30889329 15.65967693 -9.75 12.5 C-9.12351563 11.72398437 -8.49703125 10.94796875 -7.8515625 10.1484375 C-6.33329331 8.38673275 -4.79665382 6.7379993 -3.125 5.125 C-0.78571015 3.10248645 -0.78571015 3.10248645 0 0 Z " fill="#AA0000" transform="translate(258,180)"/>
<path d="M0 0 C0.66 0.33 1.32 0.66 2 1 C-0.27794293 3.53430307 -2.49808028 4.9091941 -5.5625 6.375 C-9.97519217 8.50393043 -14.33309285 10.71612783 -18.67578125 12.984375 C-21.11252961 14.0491726 -23.3819053 14.57369077 -26 15 C-25.4375 13.0625 -25.4375 13.0625 -24 11 C-20.375 10.25 -20.375 10.25 -17 10 C-17 9.34 -17 8.68 -17 8 C-15.865625 7.608125 -14.73125 7.21625 -13.5625 6.8125 C-9.38487272 5.27102255 -5.68393246 3.19513675 -1.8828125 0.890625 C-1.26148438 0.59671875 -0.64015625 0.3028125 0 0 Z " fill="#3D0000" transform="translate(245,426)"/>
<path d="M0 0 C0.33 0 0.66 0 1 0 C0.7834375 1.423125 0.7834375 1.423125 0.5625 2.875 C-0.11197278 7.56740347 -0.55376896 12.28134412 -1 17 C-1.66 17 -2.32 17 -3 17 C-2.98839844 17.63808594 -2.97679687 18.27617187 -2.96484375 18.93359375 C-2.95582031 19.75988281 -2.94679687 20.58617187 -2.9375 21.4375 C-2.92589844 22.26121094 -2.91429687 23.08492188 -2.90234375 23.93359375 C-3 26 -3 26 -4 27 C-4.36760731 29.32817964 -4.70241581 31.6618385 -5 34 C-5.33 34 -5.66 34 -6 34 C-6.27990605 26.10042938 -5.51537186 18.7527507 -4 11 C-3.34 11 -2.68 11 -2 11 C-2.04125 10.113125 -2.0825 9.22625 -2.125 8.3125 C-2.00102754 5.02722987 -1.38612096 2.94550705 0 0 Z " fill="#460000" transform="translate(199,300)"/>
<path d="M0 0 C0.33 0 0.66 0 1 0 C1.52319436 15.96711685 1.52319436 15.96711685 -2 24 C-2.51023743 26.9905583 -2.79687715 29.97416995 -3 33 C-4.98 32.67 -6.96 32.34 -9 32 C-7.68 31.67 -6.36 31.34 -5 31 C-4.95101562 30.34773438 -4.90203125 29.69546875 -4.8515625 29.0234375 C-4.77679687 28.14945312 -4.70203125 27.27546875 -4.625 26.375 C-4.55539062 25.51648438 -4.48578125 24.65796875 -4.4140625 23.7734375 C-4 21 -4 21 -3.03125 18.15625 C-1.8410348 14.51347015 -1.32278412 10.9128132 -0.875 7.125 C-0.74544922 6.09246094 -0.74544922 6.09246094 -0.61328125 5.0390625 C-0.40340434 3.36004725 -0.20092913 1.68010952 0 0 Z " fill="#3E0000" transform="translate(806,423)"/>
<path d="M0 0 C5.12583611 -0.10251672 9.94997778 -0.03590199 15 1 C15 1.66 15 2.32 15 3 C16.134375 3.12375 17.26875 3.2475 18.4375 3.375 C23.03337785 3.94229083 27.49901249 4.92684788 32 6 C32 6.33 32 6.66 32 7 C29.8537974 6.85970581 27.70803782 6.71261836 25.5625 6.5625 C24.36753906 6.48128906 23.17257812 6.40007812 21.94140625 6.31640625 C19 6 19 6 18 5 C16.48530552 4.76807135 14.96245438 4.58784762 13.4375 4.4375 C12.61121094 4.35371094 11.78492188 4.26992188 10.93359375 4.18359375 C10.29550781 4.12300781 9.65742187 4.06242187 9 4 C8.67 3.01 8.34 2.02 8 1 C5.36 1 2.72 1 0 1 C0 0.67 0 0.34 0 0 Z " fill="#4E0000" transform="translate(606,379)"/>
<path d="M0 0 C3.47930685 0.31095145 6.95841751 0.62404912 10.4375 0.9375 C11.41138672 1.02451172 12.38527344 1.11152344 13.38867188 1.20117188 C15.32701072 1.37620582 17.26500972 1.55504731 19.20263672 1.73779297 C21.02106602 1.90824096 22.84041342 2.06925044 24.66064453 2.21923828 C30.77681327 2.77681327 30.77681327 2.77681327 33 5 C29.6871348 4.86179731 26.37482011 4.71316222 23.0625 4.5625 C22.11697266 4.52318359 21.17144531 4.48386719 20.19726562 4.44335938 C18.84858398 4.38051758 18.84858398 4.38051758 17.47265625 4.31640625 C16.64000244 4.27974854 15.80734863 4.24309082 14.94946289 4.20532227 C13 4 13 4 12 3 C9.98688551 2.60430892 7.96402792 2.25747809 5.9375 1.9375 C4.28041016 1.67259766 4.28041016 1.67259766 2.58984375 1.40234375 C1.73519531 1.26957031 0.88054688 1.13679688 0 1 C0 0.67 0 0.34 0 0 Z " fill="#B5B5B5" transform="translate(546,440)"/>
<path d="M0 0 C0.89674777 2.51089376 1.13172674 3.64535109 0.1875 6.1875 C-1 8 -1 8 -3 9 C-3.65555119 11.52733235 -3.65555119 11.52733235 -4 14 C-4.66 14 -5.32 14 -6 14 C-6 14.99 -6 15.98 -6 17 C-6.66 17 -7.32 17 -8 17 C-8 17.66 -8 18.32 -8 19 C-8.99 19.33 -9.98 19.66 -11 20 C-10.1875 17.0625 -10.1875 17.0625 -9 14 C-8.01 13.67 -7.02 13.34 -6 13 C-5.67 11.02 -5.34 9.04 -5 7 C-4.01 7 -3.02 7 -2 7 C-1.855625 6.030625 -1.71125 5.06125 -1.5625 4.0625 C-1 1 -1 1 0 0 Z " fill="#7E0000" transform="translate(239,207)"/>
<path d="M0 0 C4.16138263 -0.08159574 7.9472484 0.01751476 12 1 C12 1.66 12 2.32 12 3 C16.29 3.33 20.58 3.66 25 4 C25 4.33 25 4.66 25 5 C6.15605675 5.63877774 6.15605675 5.63877774 1.1171875 1.42578125 C0.74851562 0.95527344 0.37984375 0.48476563 0 0 Z " fill="#4B0000" transform="translate(581,374)"/>
<path d="M0 0 C8.44430279 0.51755404 16.68086307 1.4560881 25 3 C25.33 3.99 25.66 4.98 26 6 C21.53791262 6.33465655 18.4751135 5.48710885 14.3671875 3.80078125 C9.72681521 2.23101835 4.83686196 1.68522211 0 1 C0 0.67 0 0.34 0 0 Z " fill="#838383" transform="translate(582,445)"/>
<path d="M0 0 C-1.0625 1.4375 -1.0625 1.4375 -3 3 C-5.33247761 3.33926947 -7.66585471 3.67240066 -10 4 C-11.33849671 4.99307821 -12.67151309 5.99357052 -14 7 C-18.27087476 8.53609425 -21.5910143 9.37780803 -26 8 C-25.10539063 7.68546875 -24.21078125 7.3709375 -23.2890625 7.046875 C-22.07992187 6.61890625 -20.87078125 6.1909375 -19.625 5.75 C-18.99174805 5.52618652 -18.35849609 5.30237305 -17.70605469 5.07177734 C-13.03052897 3.40498432 -8.44547494 1.57734178 -3.890625 -0.3984375 C-2 -1 -2 -1 0 0 Z " fill="#6A6768" transform="translate(628,659)"/>
<path d="M0 0 C-1.44632812 0.39832031 -1.44632812 0.39832031 -2.921875 0.8046875 C-4.81679688 1.33449219 -4.81679688 1.33449219 -6.75 1.875 C-8.00296875 2.22304688 -9.2559375 2.57109375 -10.546875 2.9296875 C-13.86941638 3.83633961 -13.86941638 3.83633961 -16.203125 5.1953125 C-18.50286611 6.22519656 -19.67546905 5.83018963 -22 5 C-7.49994173 -2.10581517 -7.49994173 -2.10581517 0 0 Z " fill="#4D0000" transform="translate(346,390)"/>
<path d="M0 0 C6.6 0 13.2 0 20 0 C20 0.66 20 1.32 20 2 C22.31 2 24.62 2 27 2 C27 2.33 27 2.66 27 3 C20.71628693 3.10064005 14.67190051 2.75941669 8.4375 2 C7.61958984 1.90460938 6.80167969 1.80921875 5.95898438 1.7109375 C3.97211325 1.47855491 1.98597206 1.23994484 0 1 C0 0.67 0 0.34 0 0 Z " fill="#3E0000" transform="translate(515,64)"/>
<path d="M0 0 C-14.8488665 5.9395466 -14.8488665 5.9395466 -21 4 C-7.09982547 -2.01315397 -7.09982547 -2.01315397 0 0 Z " fill="#878787" transform="translate(393,450)"/>
<path d="M0 0 C0.66 0.33 1.32 0.66 2 1 C-0.625 6.75 -0.625 6.75 -4 9 C-4.495 9.845625 -4.99 10.69125 -5.5 11.5625 C-7 14 -7 14 -10 15 C-8.50948318 10.39294801 -6.21457741 7.53603516 -3 4 C-2.34 3.67 -1.68 3.34 -1 3 C-0.67 2.01 -0.34 1.02 0 0 Z " fill="#6E0000" transform="translate(258,180)"/>
<path d="M0 0 C0.66 0 1.32 0 2 0 C3.17293889 6.3778552 4.29530838 12.50321562 4 19 C3.67 19 3.34 19 3 19 C2.67 15.37 2.34 11.74 2 8 C1.34 8 0.68 8 0 8 C0 5.36 0 2.72 0 0 Z " fill="#890000" transform="translate(801,298)"/>
<path d="M0 0 C3.35867712 0.75970078 6.52123658 1.87093255 9.75 3.0625 C11.22726562 3.60583984 11.22726562 3.60583984 12.734375 4.16015625 C13.48203125 4.43730469 14.2296875 4.71445312 15 5 C15 5.66 15 6.32 15 7 C11.7 6.34 8.4 5.68 5 5 C5 4.34 5 3.68 5 3 C2.525 2.01 2.525 2.01 0 1 C0 0.67 0 0.34 0 0 Z " fill="#600000" transform="translate(743,424)"/>
<path d="M0 0 C3.63 0 7.26 0 11 0 C6.83381749 2.08309126 3.28916286 2.63579694 -1.25 3.125 C-1.99507813 3.21136719 -2.74015625 3.29773438 -3.5078125 3.38671875 C-5.33777846 3.59786867 -7.16879879 3.79984545 -9 4 C-8.67 3.34 -8.34 2.68 -8 2 C-5.36 2 -2.72 2 0 2 C0 1.34 0 0.68 0 0 Z " fill="#484848" transform="translate(417,442)"/>
<path d="M0 0 C4.12542568 0.6901558 7.8451293 1.94887848 11.75 3.4375 C13.47476563 4.08525391 13.47476563 4.08525391 15.234375 4.74609375 C18 6 18 6 19 8 C18.443125 7.80664062 17.88625 7.61328125 17.3125 7.4140625 C12.24882873 5.68625575 7.20677935 4.2306933 2 3 C2 2.34 2 1.68 2 1 C1.34 0.67 0.68 0.34 0 0 Z " fill="#440001" transform="translate(698,405)"/>
<path d="M0 0 C2.475 0.495 2.475 0.495 5 1 C5 1.66 5 2.32 5 3 C6.06541016 3.18175781 6.06541016 3.18175781 7.15234375 3.3671875 C8.07144531 3.53476562 8.99054687 3.70234375 9.9375 3.875 C10.85402344 4.03742188 11.77054688 4.19984375 12.71484375 4.3671875 C13.84599609 4.68042969 13.84599609 4.68042969 15 5 C15.33 5.66 15.66 6.32 16 7 C13.03 6.67 10.06 6.34 7 6 C7 5.34 7 4.68 7 4 C4.03 3.505 4.03 3.505 1 3 C0.67 2.01 0.34 1.02 0 0 Z " fill="#959595" transform="translate(678,472)"/>
<path d="M0 0 C-1.33333333 0.66666667 -2.66666667 1.33333333 -4 2 C-4.639375 2.37125 -5.27875 2.7425 -5.9375 3.125 C-8.41109822 4.17440531 -10.33953538 4.14780359 -13 4 C-13 4.66 -13 5.32 -13 6 C-14.32 5.67 -15.64 5.34 -17 5 C-11.14137063 1.43887234 -6.95103087 -0.19860088 0 0 Z " fill="#5D0001" transform="translate(323,396)"/>
<path d="M0 0 C1.60080151 4.00200378 0.29279692 7.04556236 -1 11 C-1.66 11 -2.32 11 -3 11 C-3.33 12.32 -3.66 13.64 -4 15 C-5.38487972 12.23024056 -4.5914556 10.98000599 -3.6875 8.0625 C-3.42324219 7.18722656 -3.15898437 6.31195313 -2.88671875 5.41015625 C-2 3 -2 3 0 0 Z " fill="#930000" transform="translate(222,237)"/>
<path d="M0 0 C1.32 0.33 2.64 0.66 4 1 C3.01 1 2.02 1 1 1 C1 1.66 1 2.32 1 3 C-4.14209827 7.09030544 -4.14209827 7.09030544 -7.375 6.75 C-7.91125 6.5025 -8.4475 6.255 -9 6 C-8.34 5.01 -7.68 4.02 -7 3 C-3.375 2.3125 -3.375 2.3125 0 2 C0 1.34 0 0.68 0 0 Z " fill="#590100" transform="translate(228,434)"/>
<path d="M0 0 C0.33 0 0.66 0 1 0 C2.38529821 5.45461169 3.2396943 10.36718401 3 16 C1 15 1 15 0.37890625 13.296875 C-0.06955765 10.57835155 -0.09529082 8.00442923 -0.0625 5.25 C-0.05347656 4.26515625 -0.04445312 3.2803125 -0.03515625 2.265625 C-0.02355469 1.51796875 -0.01195312 0.7703125 0 0 Z " fill="#3D0000" transform="translate(193,415)"/>
<path d="M0 0 C5.98808129 1.31445687 9.03429323 4.61191026 13 9 C12.01 9 11.02 9 10 9 C9 8 8 7 7 6 C6.34 5.87625 5.68 5.7525 5 5.625 C3 5 3 5 1.25 2.4375 C0.8375 1.633125 0.425 0.82875 0 0 Z " fill="#4A0000" transform="translate(689,128)"/>
<path d="M0 0 C0.66 0.33 1.32 0.66 2 1 C1.16855469 1.70576172 1.16855469 1.70576172 0.3203125 2.42578125 C-0.76636719 3.35970703 -0.76636719 3.35970703 -1.875 4.3125 C-2.59429688 4.92738281 -3.31359375 5.54226563 -4.0546875 6.17578125 C-6.19179331 8.0412324 -6.19179331 8.0412324 -8 11 C-8.99 11 -9.98 11 -11 11 C-11 10.34 -11 9.68 -11 9 C-9.21895282 7.39821407 -7.37462722 5.86618074 -5.5 4.375 C-4.4790625 3.55773437 -3.458125 2.74046875 -2.40625 1.8984375 C-1.6121875 1.27195312 -0.818125 0.64546875 0 0 Z " fill="#7A7877" transform="translate(704,608)"/>
<path d="M0 0 C6.03280791 1.6166348 9.950809 3.16709462 14 8 C12.02 7.34 10.04 6.68 8 6 C8 5.34 8 4.68 8 4 C7.4225 3.87625 6.845 3.7525 6.25 3.625 C3.97664233 2.99351176 2.0746471 2.11141809 0 1 C0 0.67 0 0.34 0 0 Z " fill="#4A0000" transform="translate(642,98)"/>
<path d="M0 0 C0 4.02627976 -1.73312762 5.73303687 -4 9 C-4.69429379 10.3191582 -5.37530495 11.64649406 -6 13 C-6.66 13 -7.32 13 -8 13 C-6.24385848 8.02426569 -3.74380523 3.74380523 0 0 Z " fill="#6E6B6B" transform="translate(768,533)"/>
<path d="M0 0 C-0.54269531 0.19335938 -1.08539063 0.38671875 -1.64453125 0.5859375 C-2.71767578 0.97652344 -2.71767578 0.97652344 -3.8125 1.375 C-4.52019531 1.63023437 -5.22789062 1.88546875 -5.95703125 2.1484375 C-8.24773359 3.0265769 -8.24773359 3.0265769 -11 5 C-13.1875 4.625 -13.1875 4.625 -15 4 C-12.69846709 1.69846709 -11.15124095 1.2422972 -8.0625 0.3125 C-7.18722656 0.04050781 -6.31195313 -0.23148437 -5.41015625 -0.51171875 C-3 -1 -3 -1 0 0 Z " fill="#818181" transform="translate(336,467)"/>
<path d="M0 0 C0.66 0 1.32 0 2 0 C2 0.99 2 1.98 2 3 C2.66 3 3.32 3 4 3 C8 9.75 8 9.75 8 12 C5 11 5 11 3.61328125 8.75 C3.18402344 7.8425 2.75476563 6.935 2.3125 6 C1.87550781 5.0925 1.43851563 4.185 0.98828125 3.25 C0 1 0 1 0 0 Z " fill="#5A0000" transform="translate(750,189)"/>
<path d="M0 0 C0.33 0 0.66 0 1 0 C0.58525633 5.28798182 -0.35224614 8.11690718 -4 12 C-4 10.35 -4 8.7 -4 7 C-3.34 7 -2.68 7 -2 7 C-1.855625 6.21625 -1.71125 5.4325 -1.5625 4.625 C-1 2 -1 2 0 0 Z " fill="#660000" transform="translate(214,255)"/>
<path d="M0 0 C0.6875 1.8125 0.6875 1.8125 1 4 C-0.25 5.75 -0.25 5.75 -2 7 C-2.99 7 -3.98 7 -5 7 C-3.70700306 4.11562221 -2.34058637 2.12780579 0 0 Z " fill="#850000" transform="translate(268,169)"/>
<path d="M0 0 C9.1 4.2 9.1 4.2 11 8 C10.46375 7.71125 9.9275 7.4225 9.375 7.125 C6.92449903 5.88011094 6.92449903 5.88011094 3.8125 5.125 C2.884375 4.75375 1.95625 4.3825 1 4 C0.125 1.875 0.125 1.875 0 0 Z " fill="#720000" transform="translate(674,117)"/>
<path d="M0 0 C2.31 0.33 4.62 0.66 7 1 C7 1.66 7 2.32 7 3 C8.32 3.33 9.64 3.66 11 4 C8.69 4 6.38 4 4 4 C4 3.34 4 2.68 4 2 C2.68 2 1.36 2 0 2 C0 1.34 0 0.68 0 0 Z " fill="#555353" transform="translate(388,664)"/>
<path d="M0 0 C0.66 0.33 1.32 0.66 2 1 C1.4375 2.9375 1.4375 2.9375 0 5 C-3.625 5.75 -3.625 5.75 -7 6 C-4.74259377 3.66475218 -2.7194239 1.81294927 0 0 Z " fill="#959595" transform="translate(241,511)"/>
<path d="M0 0 C4.3177458 0.50797009 8.03302114 1.19682779 12 3 C8.18029984 4.46911544 5.69358471 3.52561108 2 2 C1.34 1.34 0.68 0.68 0 0 Z " fill="#969696" transform="translate(640,459)"/>
<path d="M0 0 C0.66 1.32 1.32 2.64 2 4 C2.66 4 3.32 4 4 4 C4 5.98 4 7.96 4 10 C1.16625119 6.79663178 0.4794463 4.21912747 0 0 Z " fill="#480000" transform="translate(789,259)"/>
</svg>
